<svg width="360" height="640" viewBox="0 0 360 640" fill="none" xmlns="http://www.w3.org/2000/svg">
<rect width="360" height="640" fill="url(#paint0_radial_2_2)"/>
<path d="M139.52 347.926C138.769 347.926 138.109 347.811 137.542 347.581C136.975 347.336 136.499 347.014 136.116 346.615C135.748 346.216 135.464 345.749 135.265 345.212C135.081 344.66 134.989 344.07 134.989 343.441V343.372C134.989 342.759 135.081 342.176 135.265 341.624C135.464 341.072 135.748 340.597 136.116 340.198C136.499 339.799 136.975 339.485 137.542 339.255C138.109 339.01 138.769 338.887 139.52 338.887H144.948C145.699 338.887 146.351 339.01 146.903 339.255C147.47 339.485 147.946 339.799 148.329 340.198C148.712 340.597 148.996 341.072 149.18 341.624C149.379 342.176 149.479 342.759 149.479 343.372V343.441C149.479 344.07 149.379 344.66 149.18 345.212C148.996 345.749 148.712 346.216 148.329 346.615C147.946 347.014 147.47 347.336 146.903 347.581C146.351 347.811 145.699 347.926 144.948 347.926H139.52ZM151.043 359.748V340.428C151.043 339.677 151.273 339.109 151.733 338.726C152.193 338.343 152.73 338.151 153.343 338.151C153.956 338.151 154.493 338.343 154.953 338.726C155.413 339.109 155.643 339.677 155.643 340.428V359.748H151.043ZM137.772 356.321C138.125 356.275 138.462 356.198 138.784 356.091C139.121 355.984 139.413 355.83 139.658 355.631C139.903 355.432 140.095 355.194 140.233 354.918C140.386 354.642 140.463 354.32 140.463 353.952V353.124H136.691C136.001 353.124 135.503 352.932 135.196 352.549C134.889 352.15 134.736 351.706 134.736 351.215C134.736 350.985 134.767 350.755 134.828 350.525C134.905 350.295 135.02 350.088 135.173 349.904C135.342 349.72 135.549 349.574 135.794 349.467C136.039 349.344 136.338 349.283 136.691 349.283H148.352C148.705 349.283 149.004 349.344 149.249 349.467C149.494 349.574 149.694 349.72 149.847 349.904C150 350.088 150.108 350.295 150.169 350.525C150.246 350.755 150.284 350.985 150.284 351.215C150.284 351.46 150.246 351.698 150.169 351.928C150.108 352.158 149.993 352.365 149.824 352.549C149.671 352.718 149.471 352.856 149.226 352.963C148.981 353.07 148.689 353.124 148.352 353.124H145.155V353.952C145.155 354.949 144.963 355.815 144.58 356.551C144.212 357.287 143.721 357.9 143.108 358.391C142.495 358.897 141.789 359.273 140.992 359.518C140.195 359.779 139.374 359.917 138.531 359.932C137.887 359.947 137.335 359.794 136.875 359.472C136.415 359.165 136.177 358.736 136.162 358.184C136.147 357.065 136.683 356.444 137.772 356.321ZM139.589 343.464C139.589 343.771 139.696 344.031 139.911 344.246C140.126 344.461 140.501 344.568 141.038 344.568H143.453C143.99 344.568 144.358 344.461 144.557 344.246C144.772 344.031 144.879 343.771 144.879 343.464V343.349C144.879 343.042 144.772 342.782 144.557 342.567C144.358 342.337 143.99 342.222 143.453 342.222H141.038C140.501 342.222 140.126 342.337 139.911 342.567C139.696 342.782 139.589 343.042 139.589 343.349V343.464ZM172.111 351.744C172.387 351.238 172.594 350.579 172.732 349.766H159.944C159.591 349.766 159.292 349.712 159.047 349.605C158.802 349.482 158.595 349.329 158.426 349.145C158.257 348.961 158.135 348.754 158.058 348.524C157.981 348.294 157.943 348.064 157.943 347.834C157.943 347.604 157.981 347.374 158.058 347.144C158.135 346.914 158.25 346.707 158.403 346.523C158.572 346.339 158.779 346.193 159.024 346.086C159.285 345.963 159.591 345.902 159.944 345.902H173.031V343.441C173.031 343.272 172.977 343.134 172.87 343.027C172.778 342.92 172.64 342.866 172.456 342.866H160.197C159.844 342.866 159.538 342.812 159.277 342.705C159.032 342.582 158.825 342.429 158.656 342.245C158.503 342.061 158.38 341.854 158.288 341.624C158.211 341.379 158.173 341.141 158.173 340.911C158.173 340.681 158.211 340.451 158.288 340.221C158.365 339.991 158.487 339.784 158.656 339.6C158.825 339.401 159.032 339.247 159.277 339.14C159.538 339.017 159.844 338.956 160.197 338.956H173.974C175.277 338.956 176.205 339.247 176.757 339.83C177.309 340.413 177.585 341.241 177.585 342.314V344.821C177.585 346.937 177.462 348.746 177.217 350.249C176.987 351.752 176.527 352.971 175.837 353.906C175.699 354.09 175.507 354.251 175.262 354.389C175.032 354.527 174.771 354.627 174.48 354.688C174.204 354.749 173.905 354.765 173.583 354.734C173.261 354.688 172.954 354.581 172.663 354.412C172.157 354.121 171.873 353.722 171.812 353.216C171.751 352.695 171.85 352.204 172.111 351.744ZM176.711 355.424C177.064 355.424 177.363 355.485 177.608 355.608C177.869 355.715 178.076 355.861 178.229 356.045C178.398 356.229 178.513 356.436 178.574 356.666C178.651 356.896 178.689 357.126 178.689 357.356C178.689 357.601 178.651 357.839 178.574 358.069C178.497 358.299 178.375 358.506 178.206 358.69C178.053 358.874 177.853 359.02 177.608 359.127C177.363 359.234 177.064 359.288 176.711 359.288H159.139C158.786 359.288 158.487 359.234 158.242 359.127C157.997 359.02 157.79 358.874 157.621 358.69C157.468 358.506 157.353 358.299 157.276 358.069C157.199 357.839 157.161 357.601 157.161 357.356C157.161 357.126 157.192 356.896 157.253 356.666C157.33 356.436 157.445 356.229 157.598 356.045C157.767 355.861 157.974 355.715 158.219 355.608C158.48 355.485 158.786 355.424 159.139 355.424H176.711ZM187.291 344.43C187.291 345.381 187.26 346.293 187.199 347.167C187.153 348.041 187.076 348.877 186.969 349.674C187.644 349.965 188.234 350.341 188.74 350.801C189.261 351.261 189.683 351.836 190.005 352.526C190.342 353.216 190.58 354.044 190.718 355.01C190.856 355.961 190.879 357.088 190.787 358.391H186.762C186.946 357.287 186.977 356.359 186.854 355.608C186.731 354.857 186.471 354.251 186.072 353.791C185.689 354.895 185.213 355.846 184.646 356.643C184.079 357.425 183.381 358.015 182.553 358.414C182.292 358.537 182.016 358.621 181.725 358.667C181.449 358.728 181.173 358.744 180.897 358.713C180.636 358.682 180.391 358.613 180.161 358.506C179.931 358.399 179.747 358.238 179.609 358.023C179.333 357.609 179.226 357.141 179.287 356.62C179.348 356.099 179.609 355.669 180.069 355.332C180.667 354.903 181.165 354.412 181.564 353.86C181.963 353.308 182.285 352.618 182.53 351.79C182.775 350.947 182.952 349.935 183.059 348.754C183.182 347.558 183.243 346.117 183.243 344.43H180.989C180.713 344.43 180.468 344.376 180.253 344.269C180.054 344.146 179.885 343.993 179.747 343.809C179.609 343.625 179.502 343.418 179.425 343.188C179.348 342.958 179.31 342.736 179.31 342.521C179.31 342.306 179.341 342.084 179.402 341.854C179.463 341.624 179.563 341.417 179.701 341.233C179.839 341.049 180.015 340.903 180.23 340.796C180.445 340.673 180.698 340.612 180.989 340.612H183.151V340.29C183.151 339.6 183.327 339.071 183.68 338.703C184.033 338.32 184.554 338.128 185.244 338.128C185.949 338.128 186.478 338.32 186.831 338.703C187.199 339.086 187.383 339.615 187.383 340.29V340.612H189.292C189.583 340.612 189.836 340.673 190.051 340.796C190.266 340.903 190.442 341.049 190.58 341.233C190.718 341.417 190.818 341.624 190.879 341.854C190.94 342.084 190.971 342.306 190.971 342.521C190.971 342.736 190.933 342.958 190.856 343.188C190.779 343.418 190.672 343.625 190.534 343.809C190.396 343.993 190.22 344.146 190.005 344.269C189.806 344.376 189.568 344.43 189.292 344.43H187.291ZM191.73 349.789H190.189C189.836 349.789 189.537 349.735 189.292 349.628C189.062 349.505 188.863 349.352 188.694 349.168C188.541 348.984 188.426 348.777 188.349 348.547C188.288 348.302 188.257 348.064 188.257 347.834C188.257 347.604 188.288 347.374 188.349 347.144C188.426 346.914 188.541 346.707 188.694 346.523C188.847 346.324 189.047 346.17 189.292 346.063C189.537 345.94 189.836 345.879 190.189 345.879H191.73V340.106C191.73 339.462 191.922 338.979 192.305 338.657C192.688 338.32 193.148 338.151 193.685 338.151C194.206 338.151 194.666 338.32 195.065 338.657C195.479 338.979 195.686 339.462 195.686 340.106V359.748H191.73V349.789ZM196.767 340.106C196.767 339.462 196.974 338.979 197.388 338.657C197.802 338.32 198.277 338.151 198.814 338.151C199.075 338.151 199.328 338.197 199.573 338.289C199.818 338.366 200.033 338.488 200.217 338.657C200.416 338.826 200.57 339.033 200.677 339.278C200.8 339.508 200.861 339.784 200.861 340.106V359.748H196.767V340.106ZM216.961 351.744C217.237 351.238 217.444 350.579 217.582 349.766H204.794C204.441 349.766 204.142 349.712 203.897 349.605C203.652 349.482 203.445 349.329 203.276 349.145C203.107 348.961 202.985 348.754 202.908 348.524C202.831 348.294 202.793 348.064 202.793 347.834C202.793 347.604 202.831 347.374 202.908 347.144C202.985 346.914 203.1 346.707 203.253 346.523C203.422 346.339 203.629 346.193 203.874 346.086C204.135 345.963 204.441 345.902 204.794 345.902H217.881V343.441C217.881 343.272 217.827 343.134 217.72 343.027C217.628 342.92 217.49 342.866 217.306 342.866H205.047C204.694 342.866 204.388 342.812 204.127 342.705C203.882 342.582 203.675 342.429 203.506 342.245C203.353 342.061 203.23 341.854 203.138 341.624C203.061 341.379 203.023 341.141 203.023 340.911C203.023 340.681 203.061 340.451 203.138 340.221C203.215 339.991 203.337 339.784 203.506 339.6C203.675 339.401 203.882 339.247 204.127 339.14C204.388 339.017 204.694 338.956 205.047 338.956H218.824C220.127 338.956 221.055 339.247 221.607 339.83C222.159 340.413 222.435 341.241 222.435 342.314V344.821C222.435 346.937 222.312 348.746 222.067 350.249C221.837 351.752 221.377 352.971 220.687 353.906C220.549 354.09 220.357 354.251 220.112 354.389C219.882 354.527 219.621 354.627 219.33 354.688C219.054 354.749 218.755 354.765 218.433 354.734C218.111 354.688 217.804 354.581 217.513 354.412C217.007 354.121 216.723 353.722 216.662 353.216C216.601 352.695 216.7 352.204 216.961 351.744ZM221.561 355.424C221.914 355.424 222.213 355.485 222.458 355.608C222.719 355.715 222.926 355.861 223.079 356.045C223.248 356.229 223.363 356.436 223.424 356.666C223.501 356.896 223.539 357.126 223.539 357.356C223.539 357.601 223.501 357.839 223.424 358.069C223.347 358.299 223.225 358.506 223.056 358.69C222.903 358.874 222.703 359.02 222.458 359.127C222.213 359.234 221.914 359.288 221.561 359.288H203.989C203.636 359.288 203.337 359.234 203.092 359.127C202.847 359.02 202.64 358.874 202.471 358.69C202.318 358.506 202.203 358.299 202.126 358.069C202.049 357.839 202.011 357.601 202.011 357.356C202.011 357.126 202.042 356.896 202.103 356.666C202.18 356.436 202.295 356.229 202.448 356.045C202.617 355.861 202.824 355.715 203.069 355.608C203.33 355.485 203.636 355.424 203.989 355.424H221.561Z" fill="white"/>
<g clip-path="url(#clip0_2_2)">
<path d="M150.73 275.85C150.207 275.024 149.526 274.31 148.727 273.748C147.928 273.185 147.025 272.786 146.072 272.572C145.118 272.359 144.131 272.335 143.168 272.503C142.206 272.671 141.285 273.026 140.46 273.55C139.635 274.072 138.921 274.752 138.358 275.55C137.796 276.349 137.397 277.25 137.183 278.203C136.969 279.156 136.946 280.142 137.113 281.104C137.281 282.066 137.637 282.985 138.16 283.81L156.79 313.2C157.312 314.025 157.992 314.739 158.79 315.302C159.589 315.864 160.49 316.263 161.443 316.477C162.396 316.691 163.382 316.714 164.344 316.547C165.306 316.379 166.226 316.023 167.05 315.5C167.875 314.978 168.589 314.298 169.152 313.5C169.714 312.701 170.113 311.8 170.327 310.847C170.541 309.894 170.564 308.908 170.397 307.946C170.229 306.984 169.873 306.065 169.35 305.24L150.73 275.85Z" fill="white" fill-opacity="0.7"/>
<path d="M218.42 260.16C217.595 259.636 216.674 259.281 215.712 259.113C214.749 258.945 213.762 258.969 212.808 259.182C211.855 259.396 210.952 259.795 210.153 260.358C209.354 260.92 208.673 261.634 208.15 262.46L187.28 295.39L181.42 286.27C180.897 285.444 180.216 284.73 179.417 284.168C178.618 283.605 177.715 283.206 176.762 282.992C175.808 282.779 174.821 282.755 173.858 282.923C172.896 283.091 171.975 283.446 171.15 283.97C170.325 284.492 169.611 285.172 169.048 285.97C168.486 286.769 168.087 287.67 167.873 288.623C167.659 289.576 167.636 290.562 167.803 291.524C167.971 292.486 168.327 293.405 168.85 294.23L180.9 313.23C181.898 314.804 183.45 315.946 185.25 316.43H185.31L185.89 316.56H186.07L186.54 316.61H186.82H187.58H187.86L188.33 316.56H188.51L189.09 316.43H189.15C190.951 315.948 192.504 314.806 193.5 313.23L220.64 270.41C221.701 268.755 222.063 266.748 221.647 264.826C221.231 262.905 220.071 261.227 218.42 260.16Z" fill="white" fill-opacity="0.7"/>
</g>
<defs>
<radialGradient id="paint0_radial_2_2" cx="0" cy="0" r="1" gradientUnits="userSpaceOnUse" gradientTransform="translate(53 52.5) rotate(75.5596) scale(687.727 704.893)">
<stop stop-color="white"/>
<stop offset="0.0001" stop-color="#6981FF"/>
<stop offset="1" stop-color="#AB5DD9"/>
</radialGradient>
<clipPath id="clip0_2_2">
<rect width="84.83" height="57.7" fill="white" transform="translate(137 259)"/>
</clipPath>
</defs>
</svg>
